<svg width="16" height="16" viewBox="0 0 24 24" fill="none" xmlns="http://www.w3.org/2000/svg">
    <g clip-path="url(#clip0_0_16)">
        <path d="M14.9316 19.3363C16.5582 19.9658 18.0954 20.5627 19.1376 21.3469C19.1812 21.3795 19.2052 21.4318 19.2052 21.4863C19.2052 21.5407 19.1791 21.5908 19.1354 21.6235C17.0575 23.1592 14.5914 23.9717 12.0011 23.9717C8.79367 23.9717 5.78032 22.7235 3.51485 20.4603C1.24721 18.1971 0 15.1868 0 11.9847C0 8.78489 1.24939 5.77454 3.51485 3.51134C5.7825 1.24596 8.79585 0 12.0011 0C14.9665 0 17.8141 1.08913 20.0163 3.06916C20.073 3.11926 20.0905 3.19985 20.0578 3.26955C20.0272 3.33708 19.9553 3.37847 19.879 3.36758C19.0242 3.24995 18.1019 3.19114 17.136 3.19114C13.6408 3.19114 10.8018 3.97095 8.92886 5.44345C7.25865 6.75693 6.37558 8.5736 6.37558 10.6996C6.37558 13.0673 7.28481 14.9406 9.15126 16.4262C10.7997 17.7353 12.9954 18.587 14.9316 19.3363Z" fill="#189EFF"/>
        <path d="M23.8866 10.7606C23.9215 10.7889 23.9433 10.8325 23.9477 10.8782C23.9826 11.2594 23.9979 11.6319 24 11.9847C24 13.4899 23.7231 14.9602 23.178 16.3543C23.1606 16.4022 23.1213 16.4371 23.0755 16.4545C23.0559 16.461 23.0363 16.4654 23.0167 16.4654C22.9883 16.4654 22.96 16.4589 22.9338 16.4436C21.5078 15.6529 19.9532 15.0735 18.4508 14.5137C15.5334 13.4268 13.015 12.4879 13.015 10.4295C13.015 9.69541 13.3225 9.06807 13.9046 8.61936C14.5762 8.10093 15.5836 7.83736 16.8962 7.83736C19.3579 7.83736 21.3835 8.6847 23.8866 10.7606Z" fill="#189EFF"/>
    </g>
    <defs>
        <clipPath id="clip0_0_16">
            <rect width="24" height="24" fill="white"/>
        </clipPath>
    </defs>
</svg>