<?xml version="1.0" encoding="utf-8"?>
<!-- Generator: Adobe Illustrator 23.0.1, SVG Export Plug-In . SVG Version: 6.00 Build 0)  -->
<svg version="1.1" id="Ebene_1" xmlns="http://www.w3.org/2000/svg" x="0px" y="0px"
     viewBox="0 0 171 164" style="enable-background:new 0 0 171 164;" xml:space="preserve">
<style type="text/css">
	.st0{clip-path:url(#SVGID_2_);}
	.st1{clip-path:url(#SVGID_4_);}
	.st2{opacity:0.8;}
	.st3{clip-path:url(#SVGID_8_);}
	.st4{clip-path:url(#SVGID_10_);}
	.st5{opacity:0.85;}
	.st6{fill:url(#SVGID_13_);}
	.st7{fill:url(#SVGID_14_);}
	.st8{fill:#FFFFFF;}
	.st9{fill:url(#SVGID_15_);}
	.st10{fill:url(#SVGID_16_);}
	.st11{fill:url(#SVGID_17_);}
	.st12{fill:url(#SVGID_18_);}
	.st13{fill:#B46FFF;}
	.st14{fill:#4059F0;}
	.st15{fill:#6BEDF2;}
	.st16{fill:#189EFF;}
	.st17{fill:#55D1F2;}
	.st18{fill:#826EFE;}
	.st19{fill:url(#SVGID_19_);}
</style>
    <g>
	<linearGradient id="SVGID_2_" gradientUnits="userSpaceOnUse" x1="100.8197" y1="120.1034" x2="73.4299" y2="44.8505">
		<stop  offset="0" style="stop-color:#189EFF"/>
        <stop  offset="0.188" style="stop-color:#1FA5FE"/>
        <stop  offset="0.4656" style="stop-color:#33B8FB"/>
        <stop  offset="0.797" style="stop-color:#54D7F6"/>
        <stop  offset="1" style="stop-color:#6BEDF2"/>
	</linearGradient>
        <path style="fill:url(#SVGID_2_);" d="M116.9,93.4c0,17.8-15.1,30.2-31.4,30.2c-16.5,0-31.4-12.4-31.4-30.4c0-9.5,4.1-16,11.1-25.4
		l20.4-27.4h25.1L92.6,65C104.8,66.7,116.9,77.4,116.9,93.4z M95.9,93.3c0-6.2-4.7-10.5-10.4-10.5c-5.8,0-10.4,4.5-10.4,10.5
		c0,6.1,4.6,10.8,10.4,10.8C91.2,104,95.9,99.5,95.9,93.3z"/>
</g>
</svg>
